<svg aria-hidden="true" version="1.1" xmlns="http://www.w3.org/2000/svg" xmlns:xlink="http://www.w3.org/1999/xlink" style="position: absolute; width: 0; height: 0; overflow: hidden;">
	<defs>
		<symbol id="icon-md" viewBox="0 0 384 384">
			<polygon style="fill:#EFEEEE;" points="64,0 64,384 288,384 384,288 384,0 "/>
			<polygon style="fill:#ABABAB;" points="288,288 288,384 384,288 "/>
			<polygon style="fill:#DEDEDD;" points="192,384 288,384 288,288 "/>
			<path style="fill:#CB5641;" d="M0,96v112h256V96L0,96L0,96z"/>
			<path style="fill:#FFFFFF;" d="M57.648,117.856l9.776,48.384h0.208l9.888-48.384h20.432V186.4H85.28v-54.72h-0.192L72.896,186.4 H62.144l-12.192-54.72H49.76v54.72H37.088v-68.544H57.648z"/>
			<path style="fill:#FFFFFF;" d="M140.768,117.84c4.816,0,8.672,0.8,11.632,2.368c2.944,1.568,5.232,3.792,6.864,6.72
				c1.648,2.912,2.736,6.4,3.312,10.512c0.576,4.096,0.864,8.672,0.864,13.712c0,6.016-0.352,11.248-1.088,15.696
				c-0.736,4.432-2,8.112-3.792,10.992c-1.792,2.896-4.192,5.024-7.2,6.432s-6.816,2.112-11.424,2.112h-21.824V117.84L140.768,117.84
				L140.768,117.84z M138.08,176.24c2.432,0,4.384-0.416,5.856-1.248c1.472-0.832,2.64-2.208,3.504-4.128
				c0.88-1.92,1.456-4.448,1.728-7.6c0.288-3.12,0.432-7.024,0.432-11.696c0-3.904-0.144-7.328-0.384-10.288
				c-0.256-2.944-0.784-5.392-1.584-7.344c-0.816-1.952-1.984-3.424-3.568-4.4c-1.568-0.992-3.664-1.504-6.288-1.504h-5.856v48.208
				H138.08z"/>
		</symbol>
		<symbol id="icon-folder" viewBox="0 0 408 408">
			<path d="M372,88.661H206.32l-33-39.24c-0.985-1.184-2.461-1.848-4-1.8H36c-19.956,0.198-36.023,16.443-36,36.4v240
				c-0.001,19.941,16.06,36.163,36,36.36h336c19.94-0.197,36.001-16.419,36-36.36v-199C408.001,105.08,391.94,88.859,372,88.661z"/>
		</symbol>
		<symbol id="icon-file" viewBox="0 0 16 16" style="stroke-width: .5">
			<path d="M10 0h-8v16h12v-12l-4-4zM9 5h4v10h-10v-14h6v4zM10 4v-3l3 3h-3z"></path>
		</symbol>
		<symbol id="icon-plus" viewBox="0 0 24 24">
			<path d="M11 11v-11h1v11h11v1h-11v11h-1v-11h-11v-1h11z"></path>
		</symbol>

		<symbol id="icon-pc" viewBox="0 0 97.385 97.385">
			<path d="M97.265,71.261c-0.093-0.108-0.23-0.172-0.374-0.172H0.494c-0.144,0-0.28,0.063-0.374,0.172
				c-0.094,0.108-0.136,0.253-0.115,0.396c0.014,0.09,1.468,9.016,12.753,9.016h71.869c11.284,0,12.738-8.926,12.753-9.016
				C97.4,71.514,97.358,71.369,97.265,71.261z M55.942,77.547h-14.5v-3.334h14.5V77.547z"/>
			<path d="M10.507,67.619h76.37c1.104,0,2-0.896,2-2V18.713c0-1.104-0.896-2-2-2h-76.37c-1.104,0-2,0.896-2,2v46.906
				C8.507,66.723,9.403,67.619,10.507,67.619z M15.507,23.713h66.37v36.906h-66.37V23.713z"/>
		</symbol>
		<symbol id="icon-local" viewBox="0 0 503.588 503.588" style="stroke-width: 12;">
			<path d="M499.312,375.728h-23.256v-260.76c0-17.776-14.72-30.384-32.492-30.384H59.556c-17.784,0-32.016,12.604-32.016,30.384
				v260.756H3.8c-2.172,0-3.8-0.204-3.8,1.968v3.664c0,19.724,15.904,37.648,35.62,37.648h431.86
				c19.728,0,36.108-17.924,36.108-37.648v-3.664C503.592,375.524,501.484,375.728,499.312,375.728z M246.008,96.676
				c2.912-2.952,8.18-2.952,11.092,0c1.492,1.452,2.32,3.5,2.32,5.548c0,2.084-0.828,4.092-2.32,5.584
				c-1.46,1.456-3.464,2.28-5.544,2.28s-4.092-0.824-5.548-2.28c-1.5-1.496-2.324-3.504-2.324-5.584
				C243.688,100.136,244.512,98.128,246.008,96.676z M452.444,359.988h-401.3V119.996h401.3V359.988z"/>
		</symbol>
		<symbol id="icon-gdrive" viewBox="0 0 512 512">
			<polygon points="180.421,76.257 162.803,45.742 0,327.724 79.983,466.259 97.602,435.743 242.786,184.276"/>
			<polygon points="349.197,30.482 189.23,30.482 206.85,60.999 352.034,312.466 512,312.466"/>
			<polygon points="186.394,342.983 124.03,451.001 106.411,481.518 432.018,481.518 512,342.983"/>
		</symbol>
		<symbol id="icon-github" viewBox="0 0 438.549 438.549">
			<path d="M409.132,114.573c-19.608-33.596-46.205-60.194-79.798-79.8C295.736,15.166,259.057,5.365,219.271,5.365
				c-39.781,0-76.472,9.804-110.063,29.408c-33.596,19.605-60.192,46.204-79.8,79.8C9.803,148.168,0,184.854,0,224.63
				c0,47.78,13.94,90.745,41.827,128.906c27.884,38.164,63.906,64.572,108.063,79.227c5.14,0.954,8.945,0.283,11.419-1.996
				c2.475-2.282,3.711-5.14,3.711-8.562c0-0.571-0.049-5.708-0.144-15.417c-0.098-9.709-0.144-18.179-0.144-25.406l-6.567,1.136
				c-4.187,0.767-9.469,1.092-15.846,1c-6.374-0.089-12.991-0.757-19.842-1.999c-6.854-1.231-13.229-4.086-19.13-8.559
				c-5.898-4.473-10.085-10.328-12.56-17.556l-2.855-6.57c-1.903-4.374-4.899-9.233-8.992-14.559
				c-4.093-5.331-8.232-8.945-12.419-10.848l-1.999-1.431c-1.332-0.951-2.568-2.098-3.711-3.429c-1.142-1.331-1.997-2.663-2.568-3.997
				c-0.572-1.335-0.098-2.43,1.427-3.289c1.525-0.859,4.281-1.276,8.28-1.276l5.708,0.853c3.807,0.763,8.516,3.042,14.133,6.851
				c5.614,3.806,10.229,8.754,13.846,14.842c4.38,7.806,9.657,13.754,15.846,17.847c6.184,4.093,12.419,6.136,18.699,6.136
				c6.28,0,11.704-0.476,16.274-1.423c4.565-0.952,8.848-2.383,12.847-4.285c1.713-12.758,6.377-22.559,13.988-29.41
				c-10.848-1.14-20.601-2.857-29.264-5.14c-8.658-2.286-17.605-5.996-26.835-11.14c-9.235-5.137-16.896-11.516-22.985-19.126
				c-6.09-7.614-11.088-17.61-14.987-29.979c-3.901-12.374-5.852-26.648-5.852-42.826c0-23.035,7.52-42.637,22.557-58.817
				c-7.044-17.318-6.379-36.732,1.997-58.24c5.52-1.715,13.706-0.428,24.554,3.853c10.85,4.283,18.794,7.952,23.84,10.994
				c5.046,3.041,9.089,5.618,12.135,7.708c17.705-4.947,35.976-7.421,54.818-7.421s37.117,2.474,54.823,7.421l10.849-6.849
				c7.419-4.57,16.18-8.758,26.262-12.565c10.088-3.805,17.802-4.853,23.134-3.138c8.562,21.509,9.325,40.922,2.279,58.24
				c15.036,16.18,22.559,35.787,22.559,58.817c0,16.178-1.958,30.497-5.853,42.966c-3.9,12.471-8.941,22.457-15.125,29.979
				c-6.191,7.521-13.901,13.85-23.131,18.986c-9.232,5.14-18.182,8.85-26.84,11.136c-8.662,2.286-18.415,4.004-29.263,5.146
				c9.894,8.562,14.842,22.077,14.842,40.539v60.237c0,3.422,1.19,6.279,3.572,8.562c2.379,2.279,6.136,2.95,11.276,1.995
				c44.163-14.653,80.185-41.062,108.068-79.226c27.88-38.161,41.825-81.126,41.825-128.906
				C438.536,184.851,428.728,148.168,409.132,114.573z"/>
		</symbol>

		<symbol id="icon-datetime" viewBox="0 0 22 22">
			<path d="M12.516 6.984v5.25l4.5 2.672-0.75 1.266-5.25-3.188v-6h1.5zM12 20.016c4.406 0 8.016-3.609 8.016-8.016s-3.609-8.016-8.016-8.016-8.016 3.609-8.016 8.016 3.609 8.016 8.016 8.016zM12 2.016c5.531 0 9.984 4.453 9.984 9.984s-4.453 9.984-9.984 9.984-9.984-4.453-9.984-9.984 4.453-9.984 9.984-9.984z"></path>
		</symbol>
		<symbol id="icon-formatting" viewBox="0 0 22 22">
			<path d="M9.984 12.984v-1.969h12v1.969h-12zM9.984 18.984v-1.969h12v1.969h-12zM9.984 5.016h12v1.969h-12v-1.969zM6 6.984v10.031h2.484l-3.469 3.469-3.516-3.469h2.484v-10.031h-2.484l3.516-3.469 3.469 3.469h-2.484z"></path>
		</symbol>
		<symbol id="icon-attachment" viewBox="0 0 32 32">
			<path d="M20.807 10.22l-2.030-2.029-10.15 10.148c-1.682 1.681-1.682 4.408 0 6.089s4.408 1.681 6.090 0l12.18-12.178c2.804-2.802 2.804-7.346 0-10.148-2.802-2.803-7.347-2.803-10.149 0l-12.788 12.787c-0.009 0.009-0.019 0.018-0.027 0.026-3.909 3.909-3.909 10.245 0 14.153 3.908 3.908 10.246 3.908 14.156 0 0.009-0.009 0.016-0.018 0.026-0.027l0.001 0.001 8.729-8.728-2.031-2.029-8.729 8.727c-0.009 0.008-0.018 0.018-0.026 0.026-2.784 2.783-7.312 2.783-10.096 0-2.783-2.783-2.783-7.31 0-10.093 0.010-0.009 0.019-0.018 0.028-0.026l-0.001-0.002 12.79-12.786c1.678-1.679 4.411-1.679 6.090 0s1.678 4.411 0 6.089l-12.18 12.178c-0.56 0.56-1.47 0.56-2.030 0-0.559-0.559-0.559-1.47 0-2.029l10.15-10.149z"></path>
		</symbol>
		<symbol id="icon-tag" viewBox="0 0 533.333 533.333">
			<path d="M483.236,0H332.943c-27.556,0-66.04,15.94-85.523,35.424L14.612,268.231c-19.483,19.483-19.483,51.367,0,70.85
				L194.253,518.72c19.483,19.484,51.365,19.484,70.849,0L497.91,285.913c19.483-19.484,35.424-57.969,35.424-85.522V50.098
				C533.333,22.544,510.79,0,483.236,0z M416.667,166.667c-27.614,0-50-22.385-50-50c0-27.614,22.386-50,50-50s50,22.386,50,50
				C466.667,144.281,444.281,166.667,416.667,166.667z"/>
		</symbol>
		<symbol id="icon-img" viewBox="0 0 315.58 315.58">
			<path d="M310.58,33.331H5c-2.761,0-5,2.238-5,5v238.918c0,2.762,2.239,5,5,5h305.58c2.763,0,5-2.238,5-5V38.331
				C315.58,35.569,313.343,33.331,310.58,33.331z M285.58,242.386l-68.766-71.214c-0.76-0.785-2.003-0.836-2.823-0.114l-47.695,41.979
				l-60.962-75.061c-0.396-0.49-0.975-0.77-1.63-0.756c-0.631,0.013-1.22,0.316-1.597,0.822L30,234.797V63.331h255.58V242.386z"/>
			<path d="M210.059,135.555c13.538,0,24.529-10.982,24.529-24.531c0-13.545-10.991-24.533-24.529-24.533
				c-13.549,0-24.528,10.988-24.528,24.533C185.531,124.572,196.511,135.555,210.059,135.555z"/>
		</symbol>
		
		<symbol id="icon-file-open" viewBox="0 0 276.157 276.157">
			<path d="M273.081,101.378c-3.3-4.651-8.86-7.319-15.255-7.319h-24.34v-26.47c0-10.201-8.299-18.5-18.5-18.5
				h-85.322c-3.63,0-9.295-2.876-11.436-5.806l-6.386-8.735c-4.982-6.814-15.104-11.954-23.546-11.954H58.731
				c-9.293,0-18.639,6.608-21.738,15.372l-2.033,5.752c-0.958,2.71-4.721,5.371-7.596,5.371H18.5c-10.201,0-18.5,8.299-18.5,18.5
				v167.07c0,0.885,0.161,1.73,0.443,2.519c0.152,3.306,1.18,6.424,3.053,9.064c3.3,4.652,8.86,7.319,15.255,7.319h188.486
				c11.395,0,23.27-8.424,27.035-19.179l40.677-116.188C277.061,112.159,276.381,106.03,273.081,101.378z M18.5,64.089h8.864
				c9.295,0,18.64-6.608,21.738-15.372l2.032-5.75c0.959-2.711,4.722-5.372,7.597-5.372h29.564c3.63,0,9.295,2.876,11.437,5.806
				l6.386,8.734c4.982,6.815,15.104,11.954,23.546,11.954h85.322c1.898,0,3.5,1.603,3.5,3.5v26.47H69.34
				c-11.395,0-23.27,8.424-27.035,19.179L15,191.231V67.589C15,65.692,16.603,64.089,18.5,64.089z M260.791,113.238l-40.677,116.188
				c-1.674,4.781-7.812,9.135-12.877,9.135H18.751c-1.448,0-2.577-0.373-3.02-0.998c-0.443-0.625-0.423-1.814,0.056-3.181
				l40.677-116.188c1.674-4.781,7.812-9.135,12.877-9.135h188.486c1.448,0,2.577,0.373,3.021,0.998
				C261.29,110.682,261.27,111.871,260.791,113.238z"/>
		</symbol>
		<symbol id="icon-file-save" viewBox="0 0 438.533 438.533">
			<path d="M432.823,121.049c-3.806-9.132-8.377-16.367-13.709-21.695l-79.941-79.942c-5.325-5.325-12.56-9.895-21.696-13.704
				C308.346,1.903,299.969,0,292.357,0H27.409C19.798,0,13.325,2.663,7.995,7.993c-5.33,5.327-7.992,11.799-7.992,19.414v383.719
				c0,7.617,2.662,14.089,7.992,19.417c5.33,5.325,11.803,7.991,19.414,7.991h383.718c7.618,0,14.089-2.666,19.417-7.991
				c5.325-5.328,7.987-11.8,7.987-19.417V146.178C438.531,138.562,436.629,130.188,432.823,121.049z M182.725,45.677
				c0-2.474,0.905-4.611,2.714-6.423c1.807-1.804,3.949-2.708,6.423-2.708h54.819c2.468,0,4.609,0.902,6.417,2.708
				c1.813,1.812,2.717,3.949,2.717,6.423v91.362c0,2.478-0.91,4.618-2.717,6.427c-1.808,1.803-3.949,2.708-6.417,2.708h-54.819
				c-2.474,0-4.617-0.902-6.423-2.708c-1.809-1.812-2.714-3.949-2.714-6.427V45.677z M328.906,401.991H109.633V292.355h219.273
				V401.991z M402,401.991h-36.552h-0.007V283.218c0-7.617-2.663-14.085-7.991-19.417c-5.328-5.328-11.8-7.994-19.41-7.994H100.498
				c-7.614,0-14.087,2.666-19.417,7.994c-5.327,5.328-7.992,11.8-7.992,19.417v118.773H36.544V36.542h36.544v118.771
				c0,7.615,2.662,14.084,7.992,19.414c5.33,5.327,11.803,7.993,19.417,7.993h164.456c7.61,0,14.089-2.666,19.41-7.993
				c5.325-5.327,7.994-11.799,7.994-19.414V36.542c2.854,0,6.563,0.95,11.136,2.853c4.572,1.902,7.806,3.805,9.709,5.708l80.232,80.23
				c1.902,1.903,3.806,5.19,5.708,9.851c1.909,4.665,2.857,8.33,2.857,10.994V401.991z"/>
		</symbol>
		<symbol id="icon-tab-close" viewBox="0 0 44 44">
			<path d="m22,0c-12.2,0-22,9.8-22,22s9.8,22 22,22 22-9.8 22-22-9.8-22-22-22zm3.2,22.4l7.5,7.5c0.2,0.2 0.3,0.5 0.3,0.7s-0.1,0.5-0.3,0.7l-1.4,1.4c-0.2,0.2-0.5,0.3-0.7,0.3-0.3,0-0.5-0.1-0.7-0.3l-7.5-7.5c-0.2-0.2-0.5-0.2-0.7,0l-7.5,7.5c-0.2,0.2-0.5,0.3-0.7,0.3-0.3,0-0.5-0.1-0.7-0.3l-1.4-1.4c-0.2-0.2-0.3-0.5-0.3-0.7s0.1-0.5 0.3-0.7l7.5-7.5c0.2-0.2 0.2-0.5 0-0.7l-7.5-7.5c-0.2-0.2-0.3-0.5-0.3-0.7s0.1-0.5 0.3-0.7l1.4-1.4c0.2-0.2 0.5-0.3 0.7-0.3s0.5,0.1 0.7,0.3l7.5,7.5c0.2,0.2 0.5,0.2 0.7,0l7.5-7.5c0.2-0.2 0.5-0.3 0.7-0.3 0.3,0 0.5,0.1 0.7,0.3l1.4,1.4c0.2,0.2 0.3,0.5 0.3,0.7s-0.1,0.5-0.3,0.7l-7.5,7.5c-0.2,0.1-0.2,0.5 3.55271e-15,0.7z"/>
		</symbol>
		<symbol id="icon-download" viewBox="0 0 426.667 426.667">
			<path d="M331.608,170.397l-118.09,127.479L95.118,170.22l-31.283,29.015L183.413,328.16c16.476,17.764,43.813,17.702,60.331-0.129 l119.164-128.638L331.608,170.397z"/>
			<rect x="192" width="42.667" height="298.667"/>
			<rect x="21.333" y="384" width="384" height="42.667"/>
		</symbol>
		<symbol id="icon-reset" viewBox="0 0 32 32">
			<path d="M27.802 5.197c-2.925-3.194-7.13-5.197-11.803-5.197-8.837 0-16 7.163-16 16h3c0-7.18 5.82-13 13-13 3.844 0 7.298 1.669 9.678 4.322l-4.678 4.678h11v-11l-4.198 4.197z"/>
			<path d="M29 16c0 7.18-5.82 13-13 13-3.844 0-7.298-1.669-9.678-4.322l4.678-4.678h-11v11l4.197-4.197c2.925 3.194 7.13 5.197 11.803 5.197 8.837 0 16-7.163 16-16h-3z"/>
		</symbol>
		<symbol id="icon-settings" viewBox="0 0 18 18">
			<path d="M17.341654,7.68935491 L15.5585491,7.39189286 C15.4289531,6.86205804 15.2399933,6.35558705 14.9938996,5.88320759 L16.1353929,4.46787723 C16.3781719,4.16876786 16.3671429,3.73839509 16.1111853,3.44971205 L15.4020134,2.65156473 C15.1449509,2.36318304 14.7186763,2.30219196 14.3934911,2.507625 L12.8685937,3.46620536 C12.1978929,2.99760268 11.4381562,2.65156473 10.6185937,2.45077232 L10.3202679,0.658104911 C10.2576696,0.278517857 9.92918973,0 9.54359598,0 L8.47488616,0 C8.09007589,0 7.76049107,0.278517857 7.69925893,0.658104911 L7.39932589,2.45133482 C6.72173437,2.61723214 6.0864308,2.88502232 5.50665402,3.23770982 L4.05644866,2.20275 C3.74389955,1.97945759 3.31461161,2.01437277 3.04185937,2.28654241 L2.28684375,3.04210045 C2.01467411,3.31485268 1.97975893,3.74414062 2.20363393,4.05668973 L3.24100446,5.50966741 C2.8916317,6.08506473 2.62659375,6.71675223 2.46071652,7.38829687 L0.65784375,7.68935491 C0.278839286,7.75195312 -0.000220982143,8.08047321 -0.000220982143,8.46606696 L-0.000220982143,9.53393304 C-0.000220982143,9.91952679 0.278839286,10.2480469 0.65784375,10.3106451 L2.46071652,10.6117031 C2.59694196,11.1642991 2.79470089,11.6921853 3.05754911,12.1816205 L1.92125893,13.5889554 C1.67930357,13.8877835 1.68946875,14.3184375 1.94542634,14.6068594 L2.6540558,15.4050067 C2.91113839,15.6939308 3.33765402,15.753817 3.66285937,15.5489063 L5.20973437,14.5771875 C5.86426339,15.0248772 6.60473437,15.3539196 7.39932589,15.5489063 L7.69925893,17.341875 C7.76049107,17.7215022 8.09007589,18 8.47488616,18 L9.54359598,18 C9.92918973,18 10.2576696,17.7215022 10.3202679,17.3418951 L10.619096,15.5489263 C11.2882299,15.3852589 11.9154777,15.1221295 12.4900915,14.7754888 L14.0007254,15.8543839 C14.3127321,16.0785 14.7423214,16.0433437 15.0147924,15.7703103 L15.7700893,15.0150134 C16.0419576,14.7430848 16.0787812,14.3140379 15.8529978,14.0009464 L14.7774978,12.4930647 C15.1278951,11.9157388 15.3943192,11.2829263 15.5591518,10.6083683 L17.3422366,10.310625 C17.722346,10.2480268 18.0002812,9.9195067 18.0002812,9.53391295 L18.0002812,8.46604688 C17.9997388,8.08047321 17.7218036,7.75195312 17.341654,7.68935491 L17.341654,7.68935491 Z M9.0283058,12.375 C7.1647433,12.375 5.6533058,10.8632812 5.6533058,9 C5.6533058,7.1364375 7.1647433,5.625 9.0283058,5.625 C10.8915469,5.625 12.4032656,7.1364375 12.4032656,9 C12.4032656,10.8632812 10.8915469,12.375 9.0283058,12.375 L9.0283058,12.375 Z"></path>
		</symbol>
		<symbol id="icon-check" viewBox="0 0 24 24">
			<path d="M9 16.172l10.594-10.594 1.406 1.406-12 12-5.578-5.578 1.406-1.406z"></path>
		</symbol>
		<symbol id="icon-refresh" viewBox="0 0 16 16">
			<path d="M2.083,9H0.062H0v5l1.481-1.361C2.932,14.673,5.311,16,8,16c4.08,0,7.446-3.054,7.938-7h-2.021 c-0.476,2.838-2.944,5-5.917,5c-2.106,0-3.96-1.086-5.03-2.729L5.441,9H2.083z"/>
			<path d="M8,0C3.92,0,0.554,3.054,0.062,7h2.021C2.559,4.162,5.027,2,8,2c2.169,0,4.07,1.151,5.124,2.876 L11,7h2h0.917h2.021H16V2l-1.432,1.432C13.123,1.357,10.72,0,8,0z"/>
		</symbol>
		<symbol id="icon-trash" viewBox="0 0 408.483 408.483">
			<path d="M87.748,388.784c0.461,11.01,9.521,19.699,20.539,19.699h191.911c11.018,0,20.078-8.689,20.539-19.699l13.705-289.316
				H74.043L87.748,388.784z M247.655,171.329c0-4.61,3.738-8.349,8.35-8.349h13.355c4.609,0,8.35,3.738,8.35,8.349v165.293
				c0,4.611-3.738,8.349-8.35,8.349h-13.355c-4.61,0-8.35-3.736-8.35-8.349V171.329z M189.216,171.329
				c0-4.61,3.738-8.349,8.349-8.349h13.355c4.609,0,8.349,3.738,8.349,8.349v165.293c0,4.611-3.737,8.349-8.349,8.349h-13.355
				c-4.61,0-8.349-3.736-8.349-8.349V171.329L189.216,171.329z M130.775,171.329c0-4.61,3.738-8.349,8.349-8.349h13.356
				c4.61,0,8.349,3.738,8.349,8.349v165.293c0,4.611-3.738,8.349-8.349,8.349h-13.356c-4.61,0-8.349-3.736-8.349-8.349V171.329z"/>
			<path d="M343.567,21.043h-88.535V4.305c0-2.377-1.927-4.305-4.305-4.305h-92.971c-2.377,0-4.304,1.928-4.304,4.305v16.737H64.916
				c-7.125,0-12.9,5.776-12.9,12.901V74.47h304.451V33.944C356.467,26.819,350.692,21.043,343.567,21.043z"/>
		</symbol>

		<symbol id="icon-html" viewBox="0 0 612.001 612.001">
			<path d="M599.751,276.341L489.037,165.537c-7.924-7.924-18.451-12.288-29.65-12.288c-11.179,0-21.699,4.352-29.627,12.261
				c-16.334,16.33-16.342,42.932-0.008,59.296l81.083,81.165l-81.079,81.109c-7.928,7.932-12.287,18.475-12.279,29.688
				c0.007,11.191,4.37,21.707,12.283,29.594c7.92,7.92,18.444,12.279,29.639,12.279c11.202,0,21.729-4.359,29.639-12.279
				l110.714-110.752C616.085,319.269,616.085,292.679,599.751,276.341z"/>
			<path d="M194.525,416.773c0.007-11.209-4.348-21.748-12.28-29.688l-81.075-81.109l81.09-81.173
				c16.323-16.364,16.312-42.962-0.034-59.304c-7.92-7.897-18.437-12.246-29.612-12.246c-11.198,0-21.73,4.363-29.654,12.288
				L12.25,276.334c-16.334,16.345-16.334,42.939,0.004,59.281l110.703,110.74c7.917,7.928,18.448,12.291,29.646,12.291
				s21.722-4.355,29.62-12.264C190.147,438.484,194.518,427.968,194.525,416.773z"/>
			<path d="M410.932,23.764c-4.726-1.76-9.657-2.653-14.665-2.653c-17.435,0-33.203,10.987-39.244,27.333l-180.595,485.89
				c-3.918,10.502-3.508,21.9,1.165,32.104c4.668,10.191,13.014,17.939,23.482,21.801c4.725,1.76,9.653,2.652,14.646,2.652
				c17.416,0,33.207-10.982,39.304-27.336L435.642,77.608C443.652,55.919,432.56,31.763,410.932,23.764z"/>
		</symbol>
		<symbol id="icon-pdf" viewBox="70 70 329 329" style="stroke-width: 12">
			<path d="M211.65,142.8L211.65,142.8C214.2,142.8,214.2,142.8,211.65,142.8c2.55-10.2,5.1-15.3,5.1-22.95v-5.1
				c2.55-12.75,2.55-22.95,0-25.5c0,0,0,0,0-2.55l-2.55-2.55l0,0l0,0c0,0,0,2.55-2.55,2.55C206.55,102,206.55,119.85,211.65,142.8
				L211.65,142.8z M135.15,318.75c-5.1,2.55-10.2,5.1-12.75,7.65c-17.85,15.3-30.6,33.149-33.15,40.8l0,0l0,0l0,0
				C104.55,364.65,119.85,349.35,135.15,318.75C137.7,318.75,137.7,318.75,135.15,318.75C137.7,318.75,135.15,318.75,135.15,318.75z
				M369.75,280.5c-2.55-2.55-12.75-10.2-48.45-10.2c-2.55,0-2.55,0-5.1,0l0,0c0,0,0,0,0,2.55c17.85,7.65,35.7,12.75,48.45,12.75
				c2.55,0,2.55,0,5.1,0l0,0h2.55c0,0,0,0,0-2.55l0,0C372.3,283.05,369.75,283.05,369.75,280.5z M379.95,300.9c-5.101,2.55-12.75,5.1-22.95,5.1
				c-20.4,0-51-5.1-76.5-17.85c-43.35,5.1-76.5,10.199-102,20.399c-2.55,0-2.55,0-5.1,2.55c-30.6,53.551-56.1,79.051-76.5,79.051
				c-5.1,0-7.65,0-10.2-2.551l-12.75-7.649v-2.55c-2.55-5.101-2.55-7.65-2.55-12.75c2.55-12.75,17.85-35.7,48.45-53.551
				c5.1-2.55,12.75-7.649,22.95-12.75c7.65-12.75,15.3-28.05,25.5-45.899c12.75-25.5,20.4-51,28.05-73.95l0,0
				c-10.2-30.6-15.3-48.45-5.1-84.15c2.55-10.2,10.2-20.4,20.4-20.4h5.1c5.1,0,10.2,2.55,15.3,5.1c17.851,17.85,10.2,58.65,0,91.8
				c0,2.55,0,2.55,0,2.55c10.2,28.05,25.5,51,40.8,66.3c7.65,5.1,12.75,10.2,22.95,15.3c12.75,0,22.95-2.55,33.15-2.55
				c30.6,0,51,5.1,58.649,17.85c2.551,5.101,2.551,10.2,2.551,15.3C387.6,288.15,385.05,295.8,379.95,300.9z M214.2,201.45
				c-5.1,17.85-15.3,38.25-25.5,61.2c-5.1,10.199-10.2,17.85-15.3,28.05h2.55h2.55l0,0c33.15-12.75,63.75-20.4,84.15-22.95
				c-5.101-2.55-7.65-5.1-10.2-7.65C239.7,244.8,224.4,224.4,214.2,201.45z"/>
		</symbol>
		<symbol id="icon-print" viewBox="0 0 573.75 573.75">
			<path d="M468.562,38.25c0-21.038-17.213-38.25-38.25-38.25H143.438c-21.038,0-38.25,17.212-38.25,38.25V153h363.375V38.25z"/>
			<path d="M105.188,535.5c0,21.037,17.212,38.25,38.25,38.25h286.875c21.037,0,38.25-17.213,38.25-38.25v-153H105.188V535.5z
				M143.438,439.875h286.875V459H143.438V439.875z M143.438,497.25h286.875v19.125H143.438V497.25z"/>
			<path d="M506.812,172.125H66.938c-32.513,0-57.375,24.862-57.375,57.375v172.125C9.562,434.138,34.425,459,66.938,459h19.125
				v-95.625h401.625V459h19.125c32.513,0,57.375-24.862,57.375-57.375V229.5C564.188,196.987,539.325,172.125,506.812,172.125z
				M449.438,286.875c-11.475,0-19.125-7.65-19.125-19.125s7.65-19.125,19.125-19.125s19.125,7.65,19.125,19.125
				S460.912,286.875,449.438,286.875z"/>
		</symbol>

		<symbol id="icon-expand" viewBox="0 0 533.333 533.333">
			<path d="M533.333,0v216.667L450,133.333l-100,100l-50-50l100-100L316.667,0H533.333z M233.333,350l-100,100l83.333,83.333H0
				V316.667L83.333,400l100-100L233.333,350z"/>
		</symbol>
		<symbol id="icon-converge" viewBox="0 0 512 512">
			<path d="M224,288v208l-80-80l-96,96L0,464l96-96l-80-80H224z M512,48l-96,96l80,80H288V16l80,80l96-96L512,48z"/>
		</symbol>
	</defs>
</svg>
