<svg aria-hidden="true" version="1.1" xmlns="http://www.w3.org/2000/svg" xmlns:xlink="http://www.w3.org/1999/xlink" style="position: absolute; width: 0; height: 0; overflow: hidden;">
	<defs>
		<symbol id="md" viewBox="0 0 384 384">
			<polygon style="fill:#EFEEEE;" points="64,0 64,384 288,384 384,288 384,0 "/>
			<polygon style="fill:#ABABAB;" points="288,288 288,384 384,288 "/>
			<polygon style="fill:#DEDEDD;" points="192,384 288,384 288,288 "/>
			<path style="fill:#CB5641;" d="M0,96v112h256V96L0,96L0,96z"/>
			<g>
				<path style="fill:#FFFFFF;" d="M57.648,117.856l9.776,48.384h0.208l9.888-48.384h20.432V186.4H85.28v-54.72h-0.192L72.896,186.4 H62.144l-12.192-54.72H49.76v54.72H37.088v-68.544H57.648z"/>
				<path style="fill:#FFFFFF;" d="M140.768,117.84c4.816,0,8.672,0.8,11.632,2.368c2.944,1.568,5.232,3.792,6.864,6.72
					c1.648,2.912,2.736,6.4,3.312,10.512c0.576,4.096,0.864,8.672,0.864,13.712c0,6.016-0.352,11.248-1.088,15.696
					c-0.736,4.432-2,8.112-3.792,10.992c-1.792,2.896-4.192,5.024-7.2,6.432s-6.816,2.112-11.424,2.112h-21.824V117.84L140.768,117.84
					L140.768,117.84z M138.08,176.24c2.432,0,4.384-0.416,5.856-1.248c1.472-0.832,2.64-2.208,3.504-4.128
					c0.88-1.92,1.456-4.448,1.728-7.6c0.288-3.12,0.432-7.024,0.432-11.696c0-3.904-0.144-7.328-0.384-10.288
					c-0.256-2.944-0.784-5.392-1.584-7.344c-0.816-1.952-1.984-3.424-3.568-4.4c-1.568-0.992-3.664-1.504-6.288-1.504h-5.856v48.208
					H138.08z"/>
			</g>
		</symbol>
		<symbol id="saveas" viewBox="0 0 24 28">
			<path d="M6 24h12v-6h-12v6z"/>
			<path d="M20 24h2v-14c0-0.297-0.266-0.938-0.469-1.141l-4.391-4.391c-0.219-0.219-0.828-0.469-1.141-0.469v6.5c0 0.828-0.672 1.5-1.5 1.5h-9c-0.828 0-1.5-0.672-1.5-1.5v-6.5h-2v20h2v-6.5c0-0.828 0.672-1.5 1.5-1.5h13c0.828 0 1.5 0.672 1.5 1.5v6.5z"/>
			<path d="M14 9.5v-5c0-0.266-0.234-0.5-0.5-0.5h-3c-0.266 0-0.5 0.234-0.5 0.5v5c0 0.266 0.234 0.5 0.5 0.5h3c0.266 0 0.5-0.234 0.5-0.5z"/>
			<path d="M24 10v14.5c0 0.828-0.672 1.5-1.5 1.5h-21c-0.828 0-1.5-0.672-1.5-1.5v-21c0-0.828 0.672-1.5 1.5-1.5h14.5c0.828 0 1.969 0.469 2.562 1.062l4.375 4.375c0.594 0.594 1.062 1.734 1.062 2.562z"/>
		</symbol>
		<symbol id="download" viewBox="0 0 32 32">
			<path d="M23 14l-8 8-8-8h5v-12h6v12zM15 22h-15v8h30v-8h-15zM28 26h-4v-2h4v2z"/>
		</symbol>
		<symbol id="reset" viewBox="0 0 32 32">
			<path d="M27.802 5.197c-2.925-3.194-7.13-5.197-11.803-5.197-8.837 0-16 7.163-16 16h3c0-7.18 5.82-13 13-13 3.844 0 7.298 1.669 9.678 4.322l-4.678 4.678h11v-11l-4.198 4.197z"/>
			<path d="M29 16c0 7.18-5.82 13-13 13-3.844 0-7.298-1.669-9.678-4.322l4.678-4.678h-11v11l4.197-4.197c2.925 3.194 7.13 5.197 11.803 5.197 8.837 0 16-7.163 16-16h-3z"/>
		</symbol>
		<symbol id="settings" viewBox="0 0 32 32">
			<path d="M29.181 19.070c-1.679-2.908-0.669-6.634 2.255-8.328l-3.145-5.447c-0.898 0.527-1.943 0.829-3.058 0.829-3.361 0-6.085-2.742-6.085-6.125h-6.289c0.008 1.044-0.252 2.103-0.811 3.070-1.679 2.908-5.411 3.897-8.339 2.211l-3.144 5.447c0.905 0.515 1.689 1.268 2.246 2.234 1.676 2.903 0.672 6.623-2.241 8.319l3.145 5.447c0.895-0.522 1.935-0.82 3.044-0.82 3.35 0 6.067 2.725 6.084 6.092h6.289c-0.003-1.034 0.259-2.080 0.811-3.038 1.676-2.903 5.399-3.894 8.325-2.219l3.145-5.447c-0.899-0.515-1.678-1.266-2.232-2.226zM16 22.479c-3.578 0-6.479-2.901-6.479-6.479s2.901-6.479 6.479-6.479c3.578 0 6.479 2.901 6.479 6.479s-2.901 6.479-6.479 6.479z"></path>
		</symbol>
		<symbol id="check" viewBox="0 0 24 24">
			<path d="M9 16.172l10.594-10.594 1.406 1.406-12 12-5.578-5.578 1.406-1.406z"></path>
		</symbol>
		<symbol id="info" viewBox="0 0 32 32">
			<path d="M14 9.5c0-0.825 0.675-1.5 1.5-1.5h1c0.825 0 1.5 0.675 1.5 1.5v1c0 0.825-0.675 1.5-1.5 1.5h-1c-0.825 0-1.5-0.675-1.5-1.5v-1z"></path>
			<path d="M20 24h-8v-2h2v-6h-2v-2h6v8h2z"></path>
			<path d="M16 0c-8.837 0-16 7.163-16 16s7.163 16 16 16 16-7.163 16-16-7.163-16-16-16zM16 29c-7.18 0-13-5.82-13-13s5.82-13 13-13 13 5.82 13 13-5.82 13-13 13z"></path>
		</symbol>
	</defs>
</svg>
