<svg aria-hidden="true" version="1.1" xmlns="http://www.w3.org/2000/svg" xmlns:xlink="http://www.w3.org/1999/xlink" style="position: absolute; width: 0; height: 0; overflow: hidden;">
	<defs>
		<symbol id="icon-md" viewBox="0 0 384 384">
			<polygon style="fill:#EFEEEE;" points="64,0 64,384 288,384 384,288 384,0 "/>
			<polygon style="fill:#ABABAB;" points="288,288 288,384 384,288 "/>
			<polygon style="fill:#DEDEDD;" points="192,384 288,384 288,288 "/>
			<path style="fill:#CB5641;" d="M0,96v112h256V96L0,96L0,96z"/>
			<g>
				<path style="fill:#FFFFFF;" d="M57.648,117.856l9.776,48.384h0.208l9.888-48.384h20.432V186.4H85.28v-54.72h-0.192L72.896,186.4 H62.144l-12.192-54.72H49.76v54.72H37.088v-68.544H57.648z"/>
				<path style="fill:#FFFFFF;" d="M140.768,117.84c4.816,0,8.672,0.8,11.632,2.368c2.944,1.568,5.232,3.792,6.864,6.72
					c1.648,2.912,2.736,6.4,3.312,10.512c0.576,4.096,0.864,8.672,0.864,13.712c0,6.016-0.352,11.248-1.088,15.696
					c-0.736,4.432-2,8.112-3.792,10.992c-1.792,2.896-4.192,5.024-7.2,6.432s-6.816,2.112-11.424,2.112h-21.824V117.84L140.768,117.84
					L140.768,117.84z M138.08,176.24c2.432,0,4.384-0.416,5.856-1.248c1.472-0.832,2.64-2.208,3.504-4.128
					c0.88-1.92,1.456-4.448,1.728-7.6c0.288-3.12,0.432-7.024,0.432-11.696c0-3.904-0.144-7.328-0.384-10.288
					c-0.256-2.944-0.784-5.392-1.584-7.344c-0.816-1.952-1.984-3.424-3.568-4.4c-1.568-0.992-3.664-1.504-6.288-1.504h-5.856v48.208
					H138.08z"/>
			</g>
		</symbol>
		<symbol id="icon-plus" viewBox="0 0 24 24">
			<path d="M11 11v-11h1v11h11v1h-11v11h-1v-11h-11v-1h11z"></path>
		</symbol>
		<symbol id="icon-datetime" viewBox="0 0 22 22">
			<path d="M12.516 6.984v5.25l4.5 2.672-0.75 1.266-5.25-3.188v-6h1.5zM12 20.016c4.406 0 8.016-3.609 8.016-8.016s-3.609-8.016-8.016-8.016-8.016 3.609-8.016 8.016 3.609 8.016 8.016 8.016zM12 2.016c5.531 0 9.984 4.453 9.984 9.984s-4.453 9.984-9.984 9.984-9.984-4.453-9.984-9.984 4.453-9.984 9.984-9.984z"></path>
		</symbol>
		<symbol id="icon-formatting" viewBox="0 0 22 22">
			<path d="M9.984 12.984v-1.969h12v1.969h-12zM9.984 18.984v-1.969h12v1.969h-12zM9.984 5.016h12v1.969h-12v-1.969zM6 6.984v10.031h2.484l-3.469 3.469-3.516-3.469h2.484v-10.031h-2.484l3.516-3.469 3.469 3.469h-2.484z"></path>
		</symbol>
		<symbol id="icon-attachment" viewBox="0 0 32 32">
			<path d="M20.807 10.22l-2.030-2.029-10.15 10.148c-1.682 1.681-1.682 4.408 0 6.089s4.408 1.681 6.090 0l12.18-12.178c2.804-2.802 2.804-7.346 0-10.148-2.802-2.803-7.347-2.803-10.149 0l-12.788 12.787c-0.009 0.009-0.019 0.018-0.027 0.026-3.909 3.909-3.909 10.245 0 14.153 3.908 3.908 10.246 3.908 14.156 0 0.009-0.009 0.016-0.018 0.026-0.027l0.001 0.001 8.729-8.728-2.031-2.029-8.729 8.727c-0.009 0.008-0.018 0.018-0.026 0.026-2.784 2.783-7.312 2.783-10.096 0-2.783-2.783-2.783-7.31 0-10.093 0.010-0.009 0.019-0.018 0.028-0.026l-0.001-0.002 12.79-12.786c1.678-1.679 4.411-1.679 6.090 0s1.678 4.411 0 6.089l-12.18 12.178c-0.56 0.56-1.47 0.56-2.030 0-0.559-0.559-0.559-1.47 0-2.029l10.15-10.149z"></path>
		</symbol>
		<symbol id="icon-file-empty" viewBox="0 0 32 32">
			<path d="M28.681 7.159c-0.694-0.947-1.662-2.053-2.724-3.116s-2.169-2.030-3.116-2.724c-1.612-1.182-2.393-1.319-2.841-1.319h-15.5c-1.378 0-2.5 1.121-2.5 2.5v27c0 1.378 1.122 2.5 2.5 2.5h23c1.378 0 2.5-1.122 2.5-2.5v-19.5c0-0.448-0.137-1.23-1.319-2.841zM24.543 5.457c0.959 0.959 1.712 1.825 2.268 2.543h-4.811v-4.811c0.718 0.556 1.584 1.309 2.543 2.268zM28 29.5c0 0.271-0.229 0.5-0.5 0.5h-23c-0.271 0-0.5-0.229-0.5-0.5v-27c0-0.271 0.229-0.5 0.5-0.5 0 0 15.499-0 15.5 0v7c0 0.552 0.448 1 1 1h7v19.5z"></path>
		</symbol>
		<symbol id="icon-file-open" viewBox="0 0 276.157 276.157">
			<path d="M273.081,101.378c-3.3-4.651-8.86-7.319-15.255-7.319h-24.34v-26.47c0-10.201-8.299-18.5-18.5-18.5
				h-85.322c-3.63,0-9.295-2.876-11.436-5.806l-6.386-8.735c-4.982-6.814-15.104-11.954-23.546-11.954H58.731
				c-9.293,0-18.639,6.608-21.738,15.372l-2.033,5.752c-0.958,2.71-4.721,5.371-7.596,5.371H18.5c-10.201,0-18.5,8.299-18.5,18.5
				v167.07c0,0.885,0.161,1.73,0.443,2.519c0.152,3.306,1.18,6.424,3.053,9.064c3.3,4.652,8.86,7.319,15.255,7.319h188.486
				c11.395,0,23.27-8.424,27.035-19.179l40.677-116.188C277.061,112.159,276.381,106.03,273.081,101.378z M18.5,64.089h8.864
				c9.295,0,18.64-6.608,21.738-15.372l2.032-5.75c0.959-2.711,4.722-5.372,7.597-5.372h29.564c3.63,0,9.295,2.876,11.437,5.806
				l6.386,8.734c4.982,6.815,15.104,11.954,23.546,11.954h85.322c1.898,0,3.5,1.603,3.5,3.5v26.47H69.34
				c-11.395,0-23.27,8.424-27.035,19.179L15,191.231V67.589C15,65.692,16.603,64.089,18.5,64.089z M260.791,113.238l-40.677,116.188
				c-1.674,4.781-7.812,9.135-12.877,9.135H18.751c-1.448,0-2.577-0.373-3.02-0.998c-0.443-0.625-0.423-1.814,0.056-3.181
				l40.677-116.188c1.674-4.781,7.812-9.135,12.877-9.135h188.486c1.448,0,2.577,0.373,3.021,0.998
				C261.29,110.682,261.27,111.871,260.791,113.238z"/>
		</symbol>
		<symbol id="icon-file-save" viewBox="0 0 438.533 438.533">
			<path d="M432.823,121.049c-3.806-9.132-8.377-16.367-13.709-21.695l-79.941-79.942c-5.325-5.325-12.56-9.895-21.696-13.704
				C308.346,1.903,299.969,0,292.357,0H27.409C19.798,0,13.325,2.663,7.995,7.993c-5.33,5.327-7.992,11.799-7.992,19.414v383.719
				c0,7.617,2.662,14.089,7.992,19.417c5.33,5.325,11.803,7.991,19.414,7.991h383.718c7.618,0,14.089-2.666,19.417-7.991
				c5.325-5.328,7.987-11.8,7.987-19.417V146.178C438.531,138.562,436.629,130.188,432.823,121.049z M182.725,45.677
				c0-2.474,0.905-4.611,2.714-6.423c1.807-1.804,3.949-2.708,6.423-2.708h54.819c2.468,0,4.609,0.902,6.417,2.708
				c1.813,1.812,2.717,3.949,2.717,6.423v91.362c0,2.478-0.91,4.618-2.717,6.427c-1.808,1.803-3.949,2.708-6.417,2.708h-54.819
				c-2.474,0-4.617-0.902-6.423-2.708c-1.809-1.812-2.714-3.949-2.714-6.427V45.677z M328.906,401.991H109.633V292.355h219.273
				V401.991z M402,401.991h-36.552h-0.007V283.218c0-7.617-2.663-14.085-7.991-19.417c-5.328-5.328-11.8-7.994-19.41-7.994H100.498
				c-7.614,0-14.087,2.666-19.417,7.994c-5.327,5.328-7.992,11.8-7.992,19.417v118.773H36.544V36.542h36.544v118.771
				c0,7.615,2.662,14.084,7.992,19.414c5.33,5.327,11.803,7.993,19.417,7.993h164.456c7.61,0,14.089-2.666,19.41-7.993
				c5.325-5.327,7.994-11.799,7.994-19.414V36.542c2.854,0,6.563,0.95,11.136,2.853c4.572,1.902,7.806,3.805,9.709,5.708l80.232,80.23
				c1.902,1.903,3.806,5.19,5.708,9.851c1.909,4.665,2.857,8.33,2.857,10.994V401.991z"/>
		</symbol>
		<symbol id="icon-tab-close" viewBox="0 0 44 44">
			<path d="m22,0c-12.2,0-22,9.8-22,22s9.8,22 22,22 22-9.8 22-22-9.8-22-22-22zm3.2,22.4l7.5,7.5c0.2,0.2 0.3,0.5 0.3,0.7s-0.1,0.5-0.3,0.7l-1.4,1.4c-0.2,0.2-0.5,0.3-0.7,0.3-0.3,0-0.5-0.1-0.7-0.3l-7.5-7.5c-0.2-0.2-0.5-0.2-0.7,0l-7.5,7.5c-0.2,0.2-0.5,0.3-0.7,0.3-0.3,0-0.5-0.1-0.7-0.3l-1.4-1.4c-0.2-0.2-0.3-0.5-0.3-0.7s0.1-0.5 0.3-0.7l7.5-7.5c0.2-0.2 0.2-0.5 0-0.7l-7.5-7.5c-0.2-0.2-0.3-0.5-0.3-0.7s0.1-0.5 0.3-0.7l1.4-1.4c0.2-0.2 0.5-0.3 0.7-0.3s0.5,0.1 0.7,0.3l7.5,7.5c0.2,0.2 0.5,0.2 0.7,0l7.5-7.5c0.2-0.2 0.5-0.3 0.7-0.3 0.3,0 0.5,0.1 0.7,0.3l1.4,1.4c0.2,0.2 0.3,0.5 0.3,0.7s-0.1,0.5-0.3,0.7l-7.5,7.5c-0.2,0.1-0.2,0.5 3.55271e-15,0.7z"/>
		</symbol>
		<symbol id="icon-edit" viewBox="0 0 32 32">
			<path d="M12 20l4-2 14-14-2-2-14 14-2 4zM9.041 27.097c-0.989-2.085-2.052-3.149-4.137-4.137l3.097-8.525 4-2.435 12-12h-6l-12 12-6 20 20-6 12-12v-6l-12 12-2.435 4z"></path>
		</symbol>
		<symbol id="icon-preview" viewBox="0 0 32 32">
			<path d="M16.707 0.707c-0.389-0.389-1.157-0.707-1.707-0.707h-12c-0.55 0-1 0.45-1 1v30c0 0.55 0.45 1 1 1h24c0.55 0 1-0.45 1-1v-18c0-0.55-0.318-1.318-0.707-1.707l-10.586-10.586zM26 30h-22v-28h10.974c0.091 0.015 0.263 0.086 0.338 0.14l10.549 10.549c0.054 0.075 0.125 0.247 0.14 0.338v16.974zM27 0h-6c-0.55 0-0.682 0.318-0.293 0.707l6.586 6.586c0.389 0.389 0.707 0.257 0.707-0.293v-6c0-0.55-0.45-1-1-1z"></path>
		</symbol>
		<symbol id="icon-download" viewBox="0 0 32 32">
			<path d="M23 14l-8 8-8-8h5v-12h6v12zM15 22h-15v8h30v-8h-15zM28 26h-4v-2h4v2z"/>
		</symbol>
		<symbol id="icon-power" viewBox="0 0 24 28">
			<path d="M24 14c0 6.609-5.391 12-12 12s-12-5.391-12-12c0-3.797 1.75-7.297 4.797-9.578 0.891-0.672 2.141-0.5 2.797 0.391 0.672 0.875 0.484 2.141-0.391 2.797-2.031 1.531-3.203 3.859-3.203 6.391 0 4.406 3.594 8 8 8s8-3.594 8-8c0-2.531-1.172-4.859-3.203-6.391-0.875-0.656-1.062-1.922-0.391-2.797 0.656-0.891 1.922-1.062 2.797-0.391 3.047 2.281 4.797 5.781 4.797 9.578zM14 2v10c0 1.094-0.906 2-2 2s-2-0.906-2-2v-10c0-1.094 0.906-2 2-2s2 0.906 2 2z"></path>
		</symbol>
		<symbol id="icon-reset" viewBox="0 0 32 32">
			<path d="M27.802 5.197c-2.925-3.194-7.13-5.197-11.803-5.197-8.837 0-16 7.163-16 16h3c0-7.18 5.82-13 13-13 3.844 0 7.298 1.669 9.678 4.322l-4.678 4.678h11v-11l-4.198 4.197z"/>
			<path d="M29 16c0 7.18-5.82 13-13 13-3.844 0-7.298-1.669-9.678-4.322l4.678-4.678h-11v11l4.197-4.197c2.925 3.194 7.13 5.197 11.803 5.197 8.837 0 16-7.163 16-16h-3z"/>
		</symbol>
		<symbol id="icon-settings" viewBox="0 0 18 18">
			<path d="M17.341654,7.68935491 L15.5585491,7.39189286 C15.4289531,6.86205804 15.2399933,6.35558705 14.9938996,5.88320759 L16.1353929,4.46787723 C16.3781719,4.16876786 16.3671429,3.73839509 16.1111853,3.44971205 L15.4020134,2.65156473 C15.1449509,2.36318304 14.7186763,2.30219196 14.3934911,2.507625 L12.8685937,3.46620536 C12.1978929,2.99760268 11.4381562,2.65156473 10.6185937,2.45077232 L10.3202679,0.658104911 C10.2576696,0.278517857 9.92918973,0 9.54359598,0 L8.47488616,0 C8.09007589,0 7.76049107,0.278517857 7.69925893,0.658104911 L7.39932589,2.45133482 C6.72173437,2.61723214 6.0864308,2.88502232 5.50665402,3.23770982 L4.05644866,2.20275 C3.74389955,1.97945759 3.31461161,2.01437277 3.04185937,2.28654241 L2.28684375,3.04210045 C2.01467411,3.31485268 1.97975893,3.74414062 2.20363393,4.05668973 L3.24100446,5.50966741 C2.8916317,6.08506473 2.62659375,6.71675223 2.46071652,7.38829687 L0.65784375,7.68935491 C0.278839286,7.75195312 -0.000220982143,8.08047321 -0.000220982143,8.46606696 L-0.000220982143,9.53393304 C-0.000220982143,9.91952679 0.278839286,10.2480469 0.65784375,10.3106451 L2.46071652,10.6117031 C2.59694196,11.1642991 2.79470089,11.6921853 3.05754911,12.1816205 L1.92125893,13.5889554 C1.67930357,13.8877835 1.68946875,14.3184375 1.94542634,14.6068594 L2.6540558,15.4050067 C2.91113839,15.6939308 3.33765402,15.753817 3.66285937,15.5489063 L5.20973437,14.5771875 C5.86426339,15.0248772 6.60473437,15.3539196 7.39932589,15.5489063 L7.69925893,17.341875 C7.76049107,17.7215022 8.09007589,18 8.47488616,18 L9.54359598,18 C9.92918973,18 10.2576696,17.7215022 10.3202679,17.3418951 L10.619096,15.5489263 C11.2882299,15.3852589 11.9154777,15.1221295 12.4900915,14.7754888 L14.0007254,15.8543839 C14.3127321,16.0785 14.7423214,16.0433437 15.0147924,15.7703103 L15.7700893,15.0150134 C16.0419576,14.7430848 16.0787812,14.3140379 15.8529978,14.0009464 L14.7774978,12.4930647 C15.1278951,11.9157388 15.3943192,11.2829263 15.5591518,10.6083683 L17.3422366,10.310625 C17.722346,10.2480268 18.0002812,9.9195067 18.0002812,9.53391295 L18.0002812,8.46604688 C17.9997388,8.08047321 17.7218036,7.75195312 17.341654,7.68935491 L17.341654,7.68935491 Z M9.0283058,12.375 C7.1647433,12.375 5.6533058,10.8632812 5.6533058,9 C5.6533058,7.1364375 7.1647433,5.625 9.0283058,5.625 C10.8915469,5.625 12.4032656,7.1364375 12.4032656,9 C12.4032656,10.8632812 10.8915469,12.375 9.0283058,12.375 L9.0283058,12.375 Z" id="settings_1_"></path>
		</symbol>
		<symbol id="icon-check" viewBox="0 0 24 24">
			<path d="M9 16.172l10.594-10.594 1.406 1.406-12 12-5.578-5.578 1.406-1.406z"></path>
		</symbol>
	</defs>
</svg>
